<mxfile host="app.diagrams.net" modified="2023-07-14T20:04:40.983Z" agent="Mozilla/5.0 (Windows NT 10.0; Win64; x64) AppleWebKit/537.36 (KHTML, like Gecko) Chrome/114.0.0.0 Safari/537.36" etag="U7fGygv6RWlLguszRtDM" version="21.6.2" type="github">
  <diagram name="Page-1" id="h5l0C7t8v6IvXzMdPcOg">
    <mxGraphModel dx="2173" dy="717" grid="1" gridSize="10" guides="1" tooltips="1" connect="1" arrows="1" fold="1" page="1" pageScale="1" pageWidth="850" pageHeight="1100" math="0" shadow="0">
      <root>
        <mxCell id="0" />
        <mxCell id="1" parent="0" />
        <mxCell id="iSVm5VbHLvxnCTVzza3p-7" value="" style="group" vertex="1" connectable="0" parent="1">
          <mxGeometry x="-110" y="90" width="140" height="100" as="geometry" />
        </mxCell>
        <mxCell id="iSVm5VbHLvxnCTVzza3p-4" value="" style="rounded=0;whiteSpace=wrap;html=1;fillColor=#b0e3e6;strokeColor=#0e8088;" vertex="1" parent="iSVm5VbHLvxnCTVzza3p-7">
          <mxGeometry width="140" height="100" as="geometry" />
        </mxCell>
        <mxCell id="iSVm5VbHLvxnCTVzza3p-5" value="action space" style="text;html=1;strokeColor=none;fillColor=none;align=center;verticalAlign=middle;whiteSpace=wrap;rounded=0;" vertex="1" parent="iSVm5VbHLvxnCTVzza3p-7">
          <mxGeometry width="140" height="30" as="geometry" />
        </mxCell>
        <mxCell id="iSVm5VbHLvxnCTVzza3p-6" value="discrete(2)&lt;br&gt;0: hit&lt;br&gt;1: stay" style="text;html=1;strokeColor=none;fillColor=none;align=center;verticalAlign=middle;whiteSpace=wrap;rounded=0;" vertex="1" parent="iSVm5VbHLvxnCTVzza3p-7">
          <mxGeometry x="40" y="50" width="60" height="30" as="geometry" />
        </mxCell>
        <mxCell id="iSVm5VbHLvxnCTVzza3p-9" value="" style="endArrow=none;dashed=1;html=1;rounded=0;" edge="1" parent="1">
          <mxGeometry width="50" height="50" relative="1" as="geometry">
            <mxPoint x="-4" y="90" as="sourcePoint" />
            <mxPoint x="46" y="40" as="targetPoint" />
          </mxGeometry>
        </mxCell>
        <mxCell id="iSVm5VbHLvxnCTVzza3p-11" value="" style="group" vertex="1" connectable="0" parent="1">
          <mxGeometry x="70" y="90" width="190" height="100" as="geometry" />
        </mxCell>
        <mxCell id="iSVm5VbHLvxnCTVzza3p-12" value="" style="rounded=0;whiteSpace=wrap;html=1;fillColor=#b0e3e6;strokeColor=#0e8088;" vertex="1" parent="iSVm5VbHLvxnCTVzza3p-11">
          <mxGeometry width="140" height="100" as="geometry" />
        </mxCell>
        <mxCell id="iSVm5VbHLvxnCTVzza3p-13" value="observation space" style="text;html=1;strokeColor=none;fillColor=none;align=center;verticalAlign=middle;whiteSpace=wrap;rounded=0;" vertex="1" parent="iSVm5VbHLvxnCTVzza3p-11">
          <mxGeometry width="140" height="30" as="geometry" />
        </mxCell>
        <mxCell id="iSVm5VbHLvxnCTVzza3p-14" value="discrete(21)&lt;br&gt;for each number," style="text;html=1;strokeColor=none;fillColor=none;align=center;verticalAlign=middle;whiteSpace=wrap;rounded=0;" vertex="1" parent="iSVm5VbHLvxnCTVzza3p-11">
          <mxGeometry x="-7.5" y="50" width="155" height="20" as="geometry" />
        </mxCell>
        <mxCell id="iSVm5VbHLvxnCTVzza3p-16" value="" style="group" vertex="1" connectable="0" parent="1">
          <mxGeometry x="-16" y="10" width="140" height="30" as="geometry" />
        </mxCell>
        <mxCell id="iSVm5VbHLvxnCTVzza3p-1" value="" style="rounded=0;whiteSpace=wrap;html=1;fillColor=#b0e3e6;strokeColor=#0e8088;" vertex="1" parent="iSVm5VbHLvxnCTVzza3p-16">
          <mxGeometry x="14" width="110" height="30" as="geometry" />
        </mxCell>
        <mxCell id="iSVm5VbHLvxnCTVzza3p-2" value="gym environment" style="text;html=1;strokeColor=none;fillColor=none;align=center;verticalAlign=middle;whiteSpace=wrap;rounded=0;" vertex="1" parent="iSVm5VbHLvxnCTVzza3p-16">
          <mxGeometry width="140" height="30" as="geometry" />
        </mxCell>
        <mxCell id="iSVm5VbHLvxnCTVzza3p-17" value="" style="endArrow=none;dashed=1;html=1;rounded=0;" edge="1" parent="1">
          <mxGeometry width="50" height="50" relative="1" as="geometry">
            <mxPoint x="110" y="90" as="sourcePoint" />
            <mxPoint x="60" y="40" as="targetPoint" />
          </mxGeometry>
        </mxCell>
        <mxCell id="iSVm5VbHLvxnCTVzza3p-23" value="" style="group" vertex="1" connectable="0" parent="1">
          <mxGeometry x="-200" y="215" width="320" height="55" as="geometry" />
        </mxCell>
        <mxCell id="iSVm5VbHLvxnCTVzza3p-22" value="" style="rounded=0;whiteSpace=wrap;html=1;fillColor=#b0e3e6;strokeColor=#0e8088;" vertex="1" parent="iSVm5VbHLvxnCTVzza3p-23">
          <mxGeometry x="30" width="260" height="55" as="geometry" />
        </mxCell>
        <mxCell id="iSVm5VbHLvxnCTVzza3p-21" value="new_state, reward, terminated, truncated, _" style="text;html=1;strokeColor=none;fillColor=none;align=center;verticalAlign=middle;whiteSpace=wrap;rounded=0;" vertex="1" parent="iSVm5VbHLvxnCTVzza3p-23">
          <mxGeometry y="15" width="320" height="30" as="geometry" />
        </mxCell>
        <mxCell id="iSVm5VbHLvxnCTVzza3p-24" value="" style="endArrow=none;dashed=1;html=1;rounded=0;exitX=0.5;exitY=0;exitDx=0;exitDy=0;" edge="1" parent="iSVm5VbHLvxnCTVzza3p-23" source="iSVm5VbHLvxnCTVzza3p-22">
          <mxGeometry width="50" height="50" relative="1" as="geometry">
            <mxPoint x="230" y="85" as="sourcePoint" />
            <mxPoint x="160" y="-25" as="targetPoint" />
          </mxGeometry>
        </mxCell>
        <mxCell id="iSVm5VbHLvxnCTVzza3p-30" value="" style="endArrow=classic;html=1;rounded=0;" edge="1" parent="iSVm5VbHLvxnCTVzza3p-23">
          <mxGeometry width="50" height="50" relative="1" as="geometry">
            <mxPoint x="239" y="39" as="sourcePoint" />
            <mxPoint x="259" y="103" as="targetPoint" />
          </mxGeometry>
        </mxCell>
        <mxCell id="iSVm5VbHLvxnCTVzza3p-26" value="" style="endArrow=classic;startArrow=classic;html=1;rounded=0;exitX=1;exitY=0.5;exitDx=0;exitDy=0;entryX=0;entryY=0.5;entryDx=0;entryDy=0;" edge="1" parent="1" source="iSVm5VbHLvxnCTVzza3p-4" target="iSVm5VbHLvxnCTVzza3p-12">
          <mxGeometry width="50" height="50" relative="1" as="geometry">
            <mxPoint x="30" y="250" as="sourcePoint" />
            <mxPoint x="80" y="200" as="targetPoint" />
          </mxGeometry>
        </mxCell>
        <mxCell id="iSVm5VbHLvxnCTVzza3p-27" value="" style="endArrow=classic;html=1;rounded=0;" edge="1" parent="1">
          <mxGeometry width="50" height="50" relative="1" as="geometry">
            <mxPoint x="-130" y="256" as="sourcePoint" />
            <mxPoint x="-150" y="320" as="targetPoint" />
          </mxGeometry>
        </mxCell>
        <mxCell id="iSVm5VbHLvxnCTVzza3p-28" value="" style="endArrow=classic;html=1;rounded=0;" edge="1" parent="1">
          <mxGeometry width="50" height="50" relative="1" as="geometry">
            <mxPoint x="-78" y="254" as="sourcePoint" />
            <mxPoint x="-78" y="390" as="targetPoint" />
          </mxGeometry>
        </mxCell>
        <mxCell id="iSVm5VbHLvxnCTVzza3p-29" value="" style="endArrow=classic;html=1;rounded=0;" edge="1" parent="1">
          <mxGeometry width="50" height="50" relative="1" as="geometry">
            <mxPoint x="-22" y="252" as="sourcePoint" />
            <mxPoint x="-20" y="390" as="targetPoint" />
          </mxGeometry>
        </mxCell>
        <mxCell id="iSVm5VbHLvxnCTVzza3p-31" value="" style="rounded=0;whiteSpace=wrap;html=1;fillColor=#b0e3e6;strokeColor=#0e8088;" vertex="1" parent="1">
          <mxGeometry x="-270" y="330" width="160" height="60" as="geometry" />
        </mxCell>
        <mxCell id="iSVm5VbHLvxnCTVzza3p-32" value="" style="rounded=0;whiteSpace=wrap;html=1;fillColor=#b0e3e6;strokeColor=#0e8088;" vertex="1" parent="1">
          <mxGeometry x="-250" y="400" width="190" height="150" as="geometry" />
        </mxCell>
        <mxCell id="iSVm5VbHLvxnCTVzza3p-33" value="" style="rounded=0;whiteSpace=wrap;html=1;fillColor=#b0e3e6;strokeColor=#0e8088;" vertex="1" parent="1">
          <mxGeometry x="-40" y="400" width="130" height="60" as="geometry" />
        </mxCell>
        <mxCell id="iSVm5VbHLvxnCTVzza3p-34" value="" style="rounded=0;whiteSpace=wrap;html=1;fillColor=#b0e3e6;strokeColor=#0e8088;" vertex="1" parent="1">
          <mxGeometry x="20" y="330" width="150" height="60" as="geometry" />
        </mxCell>
        <mxCell id="iSVm5VbHLvxnCTVzza3p-35" value="Agent chooses &quot;stay&quot;" style="text;html=1;strokeColor=none;fillColor=none;align=center;verticalAlign=middle;whiteSpace=wrap;rounded=0;" vertex="1" parent="1">
          <mxGeometry x="30" y="345" width="130" height="30" as="geometry" />
        </mxCell>
        <mxCell id="iSVm5VbHLvxnCTVzza3p-38" value="Bust" style="text;html=1;strokeColor=none;fillColor=none;align=center;verticalAlign=middle;whiteSpace=wrap;rounded=0;" vertex="1" parent="1">
          <mxGeometry x="-40" y="415" width="130" height="30" as="geometry" />
        </mxCell>
        <mxCell id="iSVm5VbHLvxnCTVzza3p-41" value="" style="group" vertex="1" connectable="0" parent="1">
          <mxGeometry x="410" y="10" width="100" height="30" as="geometry" />
        </mxCell>
        <mxCell id="iSVm5VbHLvxnCTVzza3p-39" value="" style="rounded=0;whiteSpace=wrap;html=1;fillColor=#fad9d5;strokeColor=#ae4132;" vertex="1" parent="iSVm5VbHLvxnCTVzza3p-41">
          <mxGeometry width="100" height="30" as="geometry" />
        </mxCell>
        <mxCell id="iSVm5VbHLvxnCTVzza3p-40" value="blackjack game" style="text;html=1;strokeColor=none;fillColor=none;align=center;verticalAlign=middle;whiteSpace=wrap;rounded=0;" vertex="1" parent="iSVm5VbHLvxnCTVzza3p-41">
          <mxGeometry x="20" width="60" height="30" as="geometry" />
        </mxCell>
        <mxCell id="iSVm5VbHLvxnCTVzza3p-46" value="" style="endArrow=none;dashed=1;html=1;rounded=0;entryX=0.5;entryY=1;entryDx=0;entryDy=0;" edge="1" parent="1" target="iSVm5VbHLvxnCTVzza3p-40">
          <mxGeometry width="50" height="50" relative="1" as="geometry">
            <mxPoint x="460" y="220" as="sourcePoint" />
            <mxPoint x="370" y="170" as="targetPoint" />
          </mxGeometry>
        </mxCell>
        <mxCell id="iSVm5VbHLvxnCTVzza3p-47" value="" style="endArrow=none;dashed=1;html=1;rounded=0;entryX=1;entryY=1;entryDx=0;entryDy=0;" edge="1" parent="1" target="iSVm5VbHLvxnCTVzza3p-40">
          <mxGeometry width="50" height="50" relative="1" as="geometry">
            <mxPoint x="540" y="160" as="sourcePoint" />
            <mxPoint x="370" y="170" as="targetPoint" />
          </mxGeometry>
        </mxCell>
        <mxCell id="iSVm5VbHLvxnCTVzza3p-50" value="" style="endArrow=none;dashed=1;html=1;dashPattern=1 3;strokeWidth=2;rounded=0;entryX=0;entryY=1;entryDx=0;entryDy=0;" edge="1" parent="1" target="iSVm5VbHLvxnCTVzza3p-40">
          <mxGeometry width="50" height="50" relative="1" as="geometry">
            <mxPoint x="380" y="160" as="sourcePoint" />
            <mxPoint x="370" y="170" as="targetPoint" />
          </mxGeometry>
        </mxCell>
        <mxCell id="iSVm5VbHLvxnCTVzza3p-51" value="" style="rounded=0;whiteSpace=wrap;html=1;fillColor=#fad9d5;strokeColor=#ae4132;" vertex="1" parent="1">
          <mxGeometry x="280" y="160" width="140" height="30" as="geometry" />
        </mxCell>
        <mxCell id="iSVm5VbHLvxnCTVzza3p-52" value="dealer agent" style="text;html=1;strokeColor=none;fillColor=none;align=center;verticalAlign=middle;whiteSpace=wrap;rounded=0;" vertex="1" parent="1">
          <mxGeometry x="275" y="160" width="150" height="30" as="geometry" />
        </mxCell>
        <mxCell id="iSVm5VbHLvxnCTVzza3p-53" value="" style="rounded=0;whiteSpace=wrap;html=1;fillColor=#fad9d5;strokeColor=#ae4132;" vertex="1" parent="1">
          <mxGeometry x="500" y="160" width="120" height="30" as="geometry" />
        </mxCell>
        <mxCell id="iSVm5VbHLvxnCTVzza3p-54" value="rl agent" style="text;html=1;strokeColor=none;fillColor=none;align=center;verticalAlign=middle;whiteSpace=wrap;rounded=0;" vertex="1" parent="1">
          <mxGeometry x="530" y="160" width="60" height="30" as="geometry" />
        </mxCell>
        <mxCell id="iSVm5VbHLvxnCTVzza3p-55" value="" style="rounded=0;whiteSpace=wrap;html=1;fillColor=#fad7ac;strokeColor=#b46504;" vertex="1" parent="1">
          <mxGeometry x="400" y="215" width="120" height="30" as="geometry" />
        </mxCell>
        <mxCell id="iSVm5VbHLvxnCTVzza3p-56" value="state" style="text;html=1;strokeColor=none;fillColor=none;align=center;verticalAlign=middle;whiteSpace=wrap;rounded=0;" vertex="1" parent="1">
          <mxGeometry x="430" y="215" width="60" height="30" as="geometry" />
        </mxCell>
        <mxCell id="iSVm5VbHLvxnCTVzza3p-59" value="&lt;h1&gt;beat dealer?&lt;/h1&gt;&lt;p&gt;bust: -100;&lt;/p&gt;&lt;p&gt;beat dealer: 100;&lt;/p&gt;&lt;p&gt;lose to dealer: 100;&lt;/p&gt;" style="text;html=1;strokeColor=none;fillColor=none;spacing=5;spacingTop=-20;whiteSpace=wrap;overflow=hidden;rounded=0;" vertex="1" parent="1">
          <mxGeometry x="-250" y="415" width="190" height="120" as="geometry" />
        </mxCell>
        <mxCell id="iSVm5VbHLvxnCTVzza3p-60" value="total #" style="text;html=1;strokeColor=none;fillColor=none;align=center;verticalAlign=middle;whiteSpace=wrap;rounded=0;" vertex="1" parent="1">
          <mxGeometry x="-220" y="345" width="60" height="30" as="geometry" />
        </mxCell>
        <mxCell id="iSVm5VbHLvxnCTVzza3p-63" value="" style="group" vertex="1" connectable="0" parent="1">
          <mxGeometry x="280" y="430" width="120" height="30" as="geometry" />
        </mxCell>
        <mxCell id="iSVm5VbHLvxnCTVzza3p-61" value="" style="rounded=0;whiteSpace=wrap;html=1;fillColor=#b1ddf0;strokeColor=#10739e;" vertex="1" parent="iSVm5VbHLvxnCTVzza3p-63">
          <mxGeometry width="120" height="30" as="geometry" />
        </mxCell>
        <mxCell id="iSVm5VbHLvxnCTVzza3p-62" value="methods" style="text;html=1;strokeColor=none;fillColor=none;align=center;verticalAlign=middle;whiteSpace=wrap;rounded=0;" vertex="1" parent="iSVm5VbHLvxnCTVzza3p-63">
          <mxGeometry x="30" width="60" height="30" as="geometry" />
        </mxCell>
        <mxCell id="iSVm5VbHLvxnCTVzza3p-69" style="edgeStyle=orthogonalEdgeStyle;rounded=0;orthogonalLoop=1;jettySize=auto;html=1;entryX=0.5;entryY=0;entryDx=0;entryDy=0;" edge="1" parent="1" source="iSVm5VbHLvxnCTVzza3p-2" target="iSVm5VbHLvxnCTVzza3p-62">
          <mxGeometry relative="1" as="geometry">
            <Array as="points">
              <mxPoint x="260" y="25" />
              <mxPoint x="260" y="390" />
              <mxPoint x="340" y="390" />
            </Array>
          </mxGeometry>
        </mxCell>
        <mxCell id="iSVm5VbHLvxnCTVzza3p-70" value="" style="group" vertex="1" connectable="0" parent="1">
          <mxGeometry x="430" y="520" width="120" height="30" as="geometry" />
        </mxCell>
        <mxCell id="iSVm5VbHLvxnCTVzza3p-71" value="" style="rounded=0;whiteSpace=wrap;html=1;fillColor=#b1ddf0;strokeColor=#10739e;" vertex="1" parent="iSVm5VbHLvxnCTVzza3p-70">
          <mxGeometry width="120" height="30" as="geometry" />
        </mxCell>
        <mxCell id="iSVm5VbHLvxnCTVzza3p-72" value="step" style="text;html=1;strokeColor=none;fillColor=none;align=center;verticalAlign=middle;whiteSpace=wrap;rounded=0;" vertex="1" parent="iSVm5VbHLvxnCTVzza3p-70">
          <mxGeometry x="30" width="60" height="30" as="geometry" />
        </mxCell>
        <mxCell id="iSVm5VbHLvxnCTVzza3p-73" value="" style="group" vertex="1" connectable="0" parent="1">
          <mxGeometry x="124" y="520" width="120" height="30" as="geometry" />
        </mxCell>
        <mxCell id="iSVm5VbHLvxnCTVzza3p-74" value="" style="rounded=0;whiteSpace=wrap;html=1;fillColor=#b1ddf0;strokeColor=#10739e;" vertex="1" parent="iSVm5VbHLvxnCTVzza3p-73">
          <mxGeometry width="120" height="30" as="geometry" />
        </mxCell>
        <mxCell id="iSVm5VbHLvxnCTVzza3p-75" value="reset" style="text;html=1;strokeColor=none;fillColor=none;align=center;verticalAlign=middle;whiteSpace=wrap;rounded=0;" vertex="1" parent="iSVm5VbHLvxnCTVzza3p-73">
          <mxGeometry x="30" width="60" height="30" as="geometry" />
        </mxCell>
        <mxCell id="iSVm5VbHLvxnCTVzza3p-78" value="" style="group" vertex="1" connectable="0" parent="1">
          <mxGeometry x="280" y="505" width="120" height="30" as="geometry" />
        </mxCell>
        <mxCell id="iSVm5VbHLvxnCTVzza3p-79" value="" style="rounded=0;whiteSpace=wrap;html=1;fillColor=#b1ddf0;strokeColor=#10739e;" vertex="1" parent="iSVm5VbHLvxnCTVzza3p-78">
          <mxGeometry width="120" height="30" as="geometry" />
        </mxCell>
        <mxCell id="iSVm5VbHLvxnCTVzza3p-80" value="init" style="text;html=1;strokeColor=none;fillColor=none;align=center;verticalAlign=middle;whiteSpace=wrap;rounded=0;" vertex="1" parent="iSVm5VbHLvxnCTVzza3p-78">
          <mxGeometry x="30" width="60" height="30" as="geometry" />
        </mxCell>
        <mxCell id="iSVm5VbHLvxnCTVzza3p-83" value="" style="endArrow=classic;html=1;rounded=0;exitX=0.25;exitY=1;exitDx=0;exitDy=0;entryX=0.5;entryY=0;entryDx=0;entryDy=0;" edge="1" parent="1" source="iSVm5VbHLvxnCTVzza3p-62" target="iSVm5VbHLvxnCTVzza3p-75">
          <mxGeometry width="50" height="50" relative="1" as="geometry">
            <mxPoint x="250" y="550" as="sourcePoint" />
            <mxPoint x="130" y="480" as="targetPoint" />
          </mxGeometry>
        </mxCell>
        <mxCell id="iSVm5VbHLvxnCTVzza3p-84" value="" style="endArrow=classic;html=1;rounded=0;exitX=0.5;exitY=1;exitDx=0;exitDy=0;entryX=0.5;entryY=0;entryDx=0;entryDy=0;" edge="1" parent="1" source="iSVm5VbHLvxnCTVzza3p-62" target="iSVm5VbHLvxnCTVzza3p-80">
          <mxGeometry width="50" height="50" relative="1" as="geometry">
            <mxPoint x="250" y="550" as="sourcePoint" />
            <mxPoint x="370" y="480" as="targetPoint" />
          </mxGeometry>
        </mxCell>
        <mxCell id="iSVm5VbHLvxnCTVzza3p-85" value="" style="endArrow=classic;html=1;rounded=0;exitX=0.75;exitY=1;exitDx=0;exitDy=0;entryX=0.5;entryY=0;entryDx=0;entryDy=0;" edge="1" parent="1" source="iSVm5VbHLvxnCTVzza3p-62" target="iSVm5VbHLvxnCTVzza3p-72">
          <mxGeometry width="50" height="50" relative="1" as="geometry">
            <mxPoint x="250" y="550" as="sourcePoint" />
            <mxPoint x="300" y="500" as="targetPoint" />
          </mxGeometry>
        </mxCell>
        <mxCell id="iSVm5VbHLvxnCTVzza3p-86" value="vars" style="swimlane;whiteSpace=wrap;html=1;fillColor=#b1ddf0;strokeColor=#10739e;" vertex="1" parent="1">
          <mxGeometry x="240" y="580" width="200" height="200" as="geometry" />
        </mxCell>
        <mxCell id="iSVm5VbHLvxnCTVzza3p-88" value="" style="endArrow=none;dashed=1;html=1;dashPattern=1 3;strokeWidth=2;rounded=0;entryX=0.5;entryY=1;entryDx=0;entryDy=0;exitX=0.5;exitY=0;exitDx=0;exitDy=0;" edge="1" parent="1" source="iSVm5VbHLvxnCTVzza3p-86" target="iSVm5VbHLvxnCTVzza3p-80">
          <mxGeometry width="50" height="50" relative="1" as="geometry">
            <mxPoint x="250" y="570" as="sourcePoint" />
            <mxPoint x="300" y="520" as="targetPoint" />
          </mxGeometry>
        </mxCell>
      </root>
    </mxGraphModel>
  </diagram>
</mxfile>
